<svg id="Group_13" data-name="Group 13" xmlns="http://www.w3.org/2000/svg" xmlns:xlink="http://www.w3.org/1999/xlink" width="161.465" height="117.054" viewBox="0 0 161.465 117.054">
  <defs>
    <clipPath id="clip-path">
      <rect id="Rectangle_17" data-name="Rectangle 17" width="161.465" height="117.054" fill="none"/>
    </clipPath>
  </defs>
  <g id="Group_12" data-name="Group 12" clip-path="url(#clip-path)">
    <path id="Path_19" data-name="Path 19" d="M.122,82.778l9.885-3.17C11.921,45.228,40.841,17.236,67.781,11.74c33.819-6.9,72.365,13.579,87.846,62.937C146.953-35.083-4.9-16.557.122,82.778" transform="translate(0 0)" fill="#f9de6b" fill-rule="evenodd"/>
    <path id="Path_20" data-name="Path 20" d="M212.649,404.761l-33.354,5.587a5.563,5.563,0,0,1-4.353-1.116,3.334,3.334,0,0,1-1.442-3.443l6.777-26.509a3.328,3.328,0,0,1,2.919-2.329,5.564,5.564,0,0,1,4.353,1.116l26.582,20.912a3.107,3.107,0,0,1-1.482,5.783" transform="translate(-151.043 -328.258)" fill="#f9de6b" fill-rule="evenodd"/>
    <path id="Path_21" data-name="Path 21" d="M787.954,395.61l33.175,6.573a5.587,5.587,0,0,0,4.39-.985,3.323,3.323,0,0,0,1.534-3.4l-5.993-26.7a3.32,3.32,0,0,0-2.846-2.413,5.573,5.573,0,0,0-4.383.982l-27.189,20.128a3.1,3.1,0,0,0,1.312,5.817" transform="translate(-683.77 -321.032)" fill="#f9de6b" fill-rule="evenodd"/>
    <path id="Path_22" data-name="Path 22" d="M373.832,221.585l-26.672-20.8a5.537,5.537,0,0,1-2.119-3.96,3.307,3.307,0,0,1,1.565-3.389l24.114-12.924a3.31,3.31,0,0,1,3.692.569,5.568,5.568,0,0,1,2.119,3.96l2.558,33.727a3.306,3.306,0,0,1-1.565,3.389,3.344,3.344,0,0,1-3.691-.568" transform="translate(-300.516 -156.928)" fill="#f9de6b" fill-rule="evenodd"/>
    <path id="Path_23" data-name="Path 23" d="M689.374,213.86l24-23.834a5.6,5.6,0,0,0,1.638-4.185,3.342,3.342,0,0,0-1.968-3.183l-25.485-9.951a3.327,3.327,0,0,0-3.6,1.007,5.6,5.6,0,0,0-1.638,4.185l1.493,33.791a3.1,3.1,0,0,0,5.552,2.17" transform="translate(-594.305 -150.259)" fill="#f9de6b" fill-rule="evenodd"/>
    <path id="Path_24" data-name="Path 24" d="M14.065,671.018c1.176,5.5,2.595,12.444,3.365,18.01.635,4.87-3.128,8.877-7.552,6.061-1.914-1.213-4.649-9.745-3.238-10.863,2.406-1.9,3.166,3.781,3.373,4.765.611,2.919,3.91,8.47,3.384,3.266-.642-6.289-5.389-24.607-5.8-26.27-.161-1.265,3.372-1.414,4.121-1.178,1.282.372,2.1,5.044,2.35,6.21" transform="translate(-5.444 -578.968)" fill="#292929"/>
    <path id="Path_25" data-name="Path 25" d="M92.662,675.555a1.485,1.485,0,0,1-.761,1.878c-3.606,1.242-1.38-8.946.761-1.878m8.154,10.1c-.617,2.149-1.517,6.25-2.91,7.441-4.889,1.024-6.091-5.817-6.682-9.585-.3-1.807-1.107-3.525.511-3.965,5.251-1.421,3.072,6.644,5.261,11.435,1.575-2.772,2.053-8.878,2.569-9.736.435-.722,2.03,1.683,1.25,4.41" transform="translate(-78.383 -586.216)" fill="#292929"/>
    <path id="Path_26" data-name="Path 26" d="M178.161,708.169c-5.718-.766-5.179-12.031-6.175-3.224-1.155,12.493-5.465-.829-6.561-5.239-.23,3.089-.062,5.773-.481,8.871-.71,4.092-2.7,3.664-4.174.04-2.09-5.008-5.193-15.022-2.7-15.642,2.5-.584,3.215,1.2,3.808,3.429,2,7.6,1.544,7.6,1.661.815.093-2.1.023-4.228,2.183-4.65,2.856-.556,2.736,1.431,3.1,3.681,2.16,13.012.773,3.262,2.9,1.314,3.4-2.534,4.161,3.149,5.765,6.2.667,1.293.983,1.176,1.283.219.762-2.493.623-6.757,1-9.575.1-.677.194-3.08.952-2.348,1.714,1.646,1.415,16.652-2.559,16.1" transform="translate(-136.873 -602.669)" fill="#292929"/>
    <path id="Path_27" data-name="Path 27" d="M349.937,665.463c-5.718-.766-5.179-12.032-6.175-3.224-1.154,12.493-5.465-.829-6.561-5.239-.23,3.089-.062,5.773-.481,8.871-.71,4.092-2.7,3.664-4.174.04-2.089-5.008-5.193-15.022-2.7-15.642,2.5-.584,3.215,1.2,3.808,3.429,2,7.6,1.544,7.6,1.661.815.093-2.1.023-4.228,2.183-4.65,2.856-.556,2.736,1.431,3.1,3.681,2.16,13.012.773,3.262,2.9,1.314,3.4-2.534,4.161,3.149,5.765,6.2.667,1.293.983,1.176,1.283.219.762-2.492.623-6.757,1-9.575.1-.677.194-3.08.952-2.348,1.714,1.646,1.415,16.652-2.56,16.1" transform="translate(-286.489 -565.472)" fill="#292929"/>
    <path id="Path_28" data-name="Path 28" d="M522.365,614.288c.349,2.639-1.121,7.84-3.356,9.97,1.248,6.253,2.748,12.751,2.641,18.957-.134,5.791-5.079,8.133-7.557,3.568a27.044,27.044,0,0,1-.021-18.3l.4-1.02c.6-1.607-.454-4.915-1.2-6.533-.658-1.41-.938-.995-1.345-.932-2.512.394.4,10.264-3.068,11.434a2.83,2.83,0,0,1-2.213-.409c-3.313-1.748-4.848-9.772-5.466-13.342-.054-.524,2.469-1.8,3.731-.275.613.769,1.429,5.594,1.735,6.823,1.716,7.365,2.007,5.6,2.441-1.144.34-4.5,3.209-8.7,6.944-4.644.415.434,1.793,3.354,1.875,3.372.18.109,2.182-4.036,2.522-7.766.128-1.49,1.79-1.136,1.942.246m-6.454,16.5-.108-.28c-1.91,2.816-.858,13.839.928,16.082,3.067,3.844-.685-15.26-.82-15.8" transform="translate(-436.524 -533.99)" fill="#292929"/>
    <path id="Path_29" data-name="Path 29" d="M790.319,741.094a5.5,5.5,0,0,1-5.677-5.68c-.006-2.934,1.97-6.458,5.152-6.746a2.348,2.348,0,0,1,2.732,2.1,4.5,4.5,0,0,1-3.265,4.753c-1,1.629.6,3.809,1.933,3.263,2.894-1.184,4.155-6.261,5.3-6.3,1.561-.028-.748,8.205-6.171,8.606m-.317-7.6a4.667,4.667,0,0,0,1.118-2.666c-.258-1.012-2.147.944-2.16,2.469-.018.306.539.65,1.042.2" transform="translate(-683.424 -634.658)" fill="#292929"/>
    <path id="Path_30" data-name="Path 30" d="M885.7,740.746c-5.608-1.8-3.042-13.021-5.626-4.35-3.406,12.346-5.342-1.815-5.651-6.444-.786,3.063-1.1,5.79-2.078,8.828-1.449,3.984-3.369,3.2-4.2-.71-1.2-5.408-2.518-16.028.1-16.2,2.62-.137,3.015,1.78,3.21,4.13.648,8,.185,7.914,1.523,1.118.47-2.089.784-4.244,3.03-4.28,2.969-.046,2.492,1.93,2.457,4.257-.168,13.464.19,3.417,2.676,1.841,3.872-1.935,3.615,3.913,4.678,7.271.438,1.419.777,1.358,1.25.45,1.214-2.367,1.84-6.678,2.723-9.442.223-.663.748-3.061,1.378-2.188,1.427,1.963-1.571,16.988-5.467,15.723" transform="translate(-754.917 -628.74)" fill="#292929"/>
    <path id="Path_31" data-name="Path 31" d="M1049.329,693.593c-.106,3.551-1.621,5.405-5.377,4.513-.124,2.143-.568,5.183-2.468,5.843-3.908,1.4-6.058-3.978-5.108-8,.2-.928,1.161-2.021,1.881-2.069a8.763,8.763,0,0,1-.534-2.289c-.354-3.025,1.745-5.833,4.279-4.973,1.829.564,1.531,2.375,1.966,4.328.529,2.213.142,4.411.286,5.431,2.471.483,2.815-.645,3.22-2.578.374-1.245,1.922-1.462,1.854-.2m-6.766,4.263a8.461,8.461,0,0,0-2.464-1.512,7.344,7.344,0,0,0,.889,5.886c.872-.63,1.639-3.425,1.575-4.373m.169-4.318a19.479,19.479,0,0,0-1.48-5.617,2.2,2.2,0,0,0-.688,1.113,3.648,3.648,0,0,0-.048,1.566,7.265,7.265,0,0,0,2.219,4.692c-.038-.569.038-1.146,0-1.753" transform="translate(-902.49 -597.903)" fill="#292929"/>
    <path id="Path_32" data-name="Path 32" d="M1133.975,724.671c-.126,4.391-2.563,16.406-4.012,17.532a2.511,2.511,0,0,1-2.461.241,6.33,6.33,0,0,1-1.03-.579c-3-2.124-.538-13.188-.384-17.162-.858.286-2.65,4.826-2.971,5.724-1.3,3.364-.541,5.029-3.8,5.894-1.647.453-1.44-4.439-1.506-5.426-.213-3.759.121-5.61-1.25-9.025-.327-.893,3.837-2.466,4.644,3.349.729,5.21-.371,5.284,1.748.493,1.292-2.906,4.562-5.3,6.477-2.3,1.4,2.193-.451,11.5-.689,14.223-.222,2.949.142,2.125.595.913.258-.7,2.541-9.887,3.329-14.628.326-1.965,1.351-.891,1.308.751" transform="translate(-972.511 -627.976)" fill="#292929"/>
    <path id="Path_33" data-name="Path 33" d="M724.109,634.327c-.089.06-8.566-1.765-10.334-2.036-1.089-.176-2.761-.738-3.13-2.012-.211-.7,1.7-8.036,1.972-9.417,1.155-5.469,3.647-15.559,3.872-20.437.041-1.193,4.063-.362,4.573.785.848,1.795-2.008,12.355-2.546,14.691-.353,1.6-3.52,12.948-3.242,13.7.135.3.449.476,1.158.616,2.559.388,4.08.339,6.381,1.645.56.3,2.406,1.753,1.3,2.465" transform="translate(-618.958 -522.464)" fill="#292929"/>
  </g>
</svg>
