<?xml version="1.0" encoding="UTF-8" standalone="no"?><!DOCTYPE svg PUBLIC "-//W3C//DTD SVG 1.1//EN" "http://www.w3.org/Graphics/SVG/1.1/DTD/svg11.dtd"><svg width="100%" height="100%" viewBox="0 0 96 96" version="1.1" xmlns="http://www.w3.org/2000/svg" xmlns:xlink="http://www.w3.org/1999/xlink" xml:space="preserve" xmlns:serif="http://www.serif.com/" style="fill-rule:evenodd;clip-rule:evenodd;stroke-linejoin:round;stroke-miterlimit:2;"><path d="M58.686,35.462c-0,-0 -0,-0 -0,-0c-4.492,-4.492 -10.585,-7.016 -16.937,-7.016c-6.353,0 -12.445,2.524 -16.937,7.016c-5.478,5.477 -11.959,11.959 -17.516,17.515c-4.671,4.672 -7.296,11.008 -7.296,17.615c0,6.607 2.625,12.944 7.296,17.615c0.022,0.022 0.044,0.044 0.065,0.065c4.672,4.672 11.008,7.297 17.615,7.297c6.607,-0 12.944,-2.625 17.616,-7.297c4.363,-4.363 8.167,-8.167 8.167,-8.167c2.688,-2.688 2.688,-7.053 -0,-9.741c-2.688,-2.688 -7.053,-2.688 -9.741,0c-0,0 -3.804,3.804 -8.167,8.167c-2.089,2.089 -4.921,3.262 -7.875,3.262c-2.953,0 -5.785,-1.173 -7.874,-3.262c-0.022,-0.021 -0.043,-0.043 -0.065,-0.064c-2.088,-2.089 -3.261,-4.921 -3.261,-7.875c-0,-2.953 1.173,-5.786 3.261,-7.874c5.557,-5.557 12.038,-12.038 17.516,-17.516c1.908,-1.908 4.497,-2.98 7.196,-2.98c2.699,-0 5.287,1.072 7.196,2.98c0,0.001 0,0.001 0,0.001c2.688,2.688 7.053,2.688 9.741,-0c2.688,-2.688 2.688,-7.053 0,-9.741Z" style="fill:#1d3557;"/><path d="M37.314,60.538c0,0 0,0 0,0c4.492,4.492 10.585,7.016 16.937,7.016c6.353,-0 12.445,-2.524 16.937,-7.016c5.478,-5.477 11.959,-11.959 17.516,-17.515c4.671,-4.672 7.296,-11.008 7.296,-17.615c-0,-6.607 -2.625,-12.944 -7.296,-17.615c-0.022,-0.022 -0.044,-0.044 -0.065,-0.065c-4.672,-4.672 -11.008,-7.297 -17.615,-7.297c-6.607,0 -12.944,2.625 -17.616,7.297c-4.363,4.363 -8.167,8.167 -8.167,8.167c-2.688,2.688 -2.688,7.053 0,9.741c2.688,2.688 7.053,2.688 9.741,-0c0,-0 3.804,-3.804 8.167,-8.167c2.089,-2.089 4.921,-3.262 7.875,-3.262c2.953,-0 5.785,1.173 7.874,3.262c0.022,0.021 0.043,0.043 0.065,0.064c2.088,2.089 3.261,4.921 3.261,7.875c0,2.953 -1.173,5.786 -3.261,7.874c-5.557,5.557 -12.038,12.038 -17.516,17.516c-1.908,1.908 -4.497,2.98 -7.196,2.98c-2.699,0 -5.287,-1.072 -7.196,-2.98c-0,-0.001 -0,-0.001 -0,-0.001c-2.688,-2.688 -7.053,-2.688 -9.741,0c-2.688,2.688 -2.688,7.053 -0,9.741Z" style="fill:#1d3557;"/></svg>